<svg width="1400" height="900" viewBox="0 0 1400 900" fill="none" xmlns="http://www.w3.org/2000/svg">
<rect width="1400" height="900" fill="#F4F4F5"/>
<rect x="24" y="24" width="1352" height="92" rx="12" fill="white" stroke="#E4E4E7"/>
<text x="52" y="78" fill="#09090B" font-size="34" font-family="Inter,Arial">Tableau de bord (desktop)</text>
<rect x="1120" y="48" width="220" height="44" rx="10" fill="#18181B"/>
<text x="1168" y="76" fill="#FAFAFA" font-size="20" font-family="Inter,Arial">Mettre à jour</text>
<rect x="24" y="140" width="320" height="120" rx="12" fill="white" stroke="#E4E4E7"/>
<rect x="360" y="140" width="320" height="120" rx="12" fill="white" stroke="#E4E4E7"/>
<rect x="696" y="140" width="320" height="120" rx="12" fill="white" stroke="#E4E4E7"/>
<rect x="1032" y="140" width="344" height="120" rx="12" fill="white" stroke="#E4E4E7"/>
<rect x="24" y="280" width="888" height="596" rx="12" fill="white" stroke="#E4E4E7"/>
<text x="52" y="322" fill="#09090B" font-size="26" font-family="Inter,Arial">Tâches en cours</text>
<line x1="52" y1="350" x2="884" y2="350" stroke="#E4E4E7"/>
<line x1="52" y1="405" x2="884" y2="405" stroke="#E4E4E7"/>
<line x1="52" y1="460" x2="884" y2="460" stroke="#E4E4E7"/>
<line x1="52" y1="515" x2="884" y2="515" stroke="#E4E4E7"/>
<rect x="932" y="280" width="444" height="596" rx="12" fill="white" stroke="#E4E4E7"/>
<text x="960" y="322" fill="#09090B" font-size="26" font-family="Inter,Arial">Revenu mensuel</text>
</svg>
